<?xml version="1.0" encoding="UTF-8"?>
<svg id="_Слой_1" data-name="Слой 1" xmlns="http://www.w3.org/2000/svg" version="1.1" viewBox="0 0 1280 1280">
  <defs>
    <style>
      .cls-1 {
        fill: #ff8964;
        stroke-width: 0px;
      }
    </style>
  </defs>
  <path class="cls-1" d="M610,.6c-114.4,6.2-218.6,39.3-313,99.4C134.1,203.7,25.3,377.3,4.1,567.5c-3,26.7-3.5,37.5-3.5,72.5s.5,45.8,3.5,72.5c11.1,99.9,47.1,198,103.7,282.5,105.1,156.8,274.3,260.3,459.7,280.9,26.7,3,37.5,3.5,72.5,3.5s45.8-.5,72.5-3.5c95.1-10.6,188.5-43.7,270.5-95.9,162.9-103.7,271.7-277.3,292.9-467.5,3-26.7,3.5-37.5,3.5-72.5s-.5-45.8-3.5-72.5c-12.3-110.6-55.9-220.5-122.7-309.5C1046.8,116.4,892.4,26.7,717,4.5c-24.3-3-83.2-5.2-107-3.9Z"/>
</svg>